PathFileType	4	(X/Y/Z)	C:\Users\Basilio\Documents\Thesis Gigler\squatting_fais\c3dfiles\019\SJ_pre2\markers_experimental.trc
DataRate	CameraRate	NumFrames	NumMarkers	Units	OrigDataRate	OrigDataStartFrame	OrigNumFrames
200.000000	200.000000	4	59	mm	200.000000	958	1278
Frame#	Time	FHD			LBHD			RBHD			C7			T10			CLAV			LSHO			LUUPA			LMUPA			LDUPA			LLEP			LMEP			LRAD			LUL			LRFIN			RSHO			RUPA1			RMUPA			RDUPA			RLEP			RMEP			RRAD			RUL			RUFIN			LASI			RASI			USACR			LSACR			RSACR			LTHI1			LTHI2			LTHI3			LTHI4			LLFC			LTIB1			LTIB2			LTIB3			LTIB4			LLMAL			LMMAL			LHEE			LMT1			LMT2			LMT5			RTHI			RTHI2			RTHI3			RTHI4			RLFC			RTIB1			RTIB2			RTIB3			RTIB4			RLMAL			RMMAL			RHEE			RMT1			RMT2			RMT5			
		X1	Y1	Z1	X2	Y2	Z2	X3	Y3	Z3	X4	Y4	Z4	X5	Y5	Z5	X6	Y6	Z6	X7	Y7	Z7	X8	Y8	Z8	X9	Y9	Z9	X10	Y10	Z10	X11	Y11	Z11	X12	Y12	Z12	X13	Y13	Z13	X14	Y14	Z14	X15	Y15	Z15	X16	Y16	Z16	X17	Y17	Z17	X18	Y18	Z18	X19	Y19	Z19	X20	Y20	Z20	X21	Y21	Z21	X22	Y22	Z22	X23	Y23	Z23	X24	Y24	Z24	X25	Y25	Z25	X26	Y26	Z26	X27	Y27	Z27	X28	Y28	Z28	X29	Y29	Z29	X30	Y30	Z30	X31	Y31	Z31	X32	Y32	Z32	X33	Y33	Z33	X34	Y34	Z34	X35	Y35	Z35	X36	Y36	Z36	X37	Y37	Z37	X38	Y38	Z38	X39	Y39	Z39	X40	Y40	Z40	X41	Y41	Z41	X42	Y42	Z42	X43	Y43	Z43	X44	Y44	Z44	X45	Y45	Z45	X46	Y46	Z46	X47	Y47	Z47	X48	Y48	Z48	X49	Y49	Z49	X50	Y50	Z50	X51	Y51	Z51	X52	Y52	Z52	X53	Y53	Z53	X54	Y54	Z54	X55	Y55	Z55	X56	Y56	Z56	X57	Y57	Z57	X58	Y58	Z58	X59	Y59	Z59	

959	4.79	-25.53450584411622	1446.342529296875	-818.0946044921877	-140.3726959228516	1470.699340820313	-975.9809570312502	-160.7843780517578	1467.933715820313	-837.702087402344	-242.2169647216797	1322.203002929688	-903.2639770507815	-409.0726318359376	1080.756469726563	-903.1695556640627	-135.0634460449219	1218.64404296875	-902.2506103515627	-175.0024566650391	1285.454711914063	-1055.206176757813	-255.6856384277344	1171.35888671875	-1163.099853515625	-270.1875610351563	1129.53564453125	-1142.088500976563	-297.5949707031251	1129.337524414063	-1195.16015625	-358.1558227539063	1105.60498046875	-1250.519287109375	-423.2835998535157	1127.189086914063	-1224.252075195313	-420.0244750976564	903.6478271484377	-1109.219360351563	-407.6765136718751	870.4968261718752	-1165.903564453125	-388.6737365722657	873.280456542969	-1070.874389648438	-174.3680267333985	1285.622192382813	-762.4274291992189	-304.6310119628907	1228.489868164063	-629.0364990234376	-295.1814270019532	1178.08251953125	-621.6688842773439	-343.2579040527344	1189.196533203125	-585.4701538085939	-383.1904907226563	1125.285888671875	-548.8051757812501	-439.1556396484376	1151.484985351563	-576.3818969726564	-436.272186279297	919.5118408203127	-693.7747192382814	-419.3771972656251	886.6519775390627	-637.3754272460939	-394.9923400878907	880.588073730469	-730.5037231445314	-373.5743103027344	842.4938964843752	-1010.399658203125	-371.0203857421876	837.8748779296877	-811.569763183594	-485.4100036621095	967.3834228515627	-905.8784790039065	-506.0831604003907	940.6268310546877	-932.844177246094	-503.4837036132814	940.357360839844	-875.8059692382815	-398.0655212402345	644.5858154296876	-1133.0810546875	-325.4649353027344	605.7789306640626	-1155.118041992188	-286.6451721191407	631.4336547851564	-1145.219848632813	-314.3097229003907	544.2005004882814	-1155.378662109375	-269.7791748046876	464.4812011718751	-1157.26904296875	-234.5308380126954	319.6368713378907	-1149.22802734375	-309.9001464843751	297.0874023437501	-1189.300415039063	-271.9209594726563	282.9513854980469	-1174.893188476563	-289.8515319824219	203.8552856445313	-1144.446166992188	-396.7444458007814	99.26867675781253	-1164.436157226563	-360.0610351562501	93.83571624755861	-1085.448852539063	-449.2659301757814	46.66942596435548	-1104.09619140625	-235.7151794433594	58.13158035278322	-1143.788696289063	-244.2036285400391	61.1847496032715	-1182.991455078125	-295.9874572753907	36.57105255126954	-1224.204833984375	-415.4975585937501	709.2835693359376	-692.0039672851564	-353.7374877929688	689.4151000976564	-681.3198242187501	-329.5496215820313	705.4176635742189	-697.6709594726564	-328.3639831542969	613.5958862304689	-659.7647705078126	-265.3778381347657	466.9345703125001	-657.6187133789064	-237.5570983886719	284.3389892578126	-685.5222778320314	-321.5881958007813	223.3041687011719	-644.4444580078126	-280.2495117187501	212.2753448486329	-664.4924316406251	-288.6574401855469	169.3892822265625	-706.7802124023439	-375.7359924316407	99.47009277343753	-672.5930786132814	-334.3455505371094	94.8107147216797	-742.5401611328126	-416.1324157714845	44.50000762939454	-740.8402709960939	-217.3365936279297	55.83654022216798	-675.9723510742189	-231.4184875488282	62.70728683471681	-631.9396362304689	-286.8913879394532	41.66069412231446	-598.3121948242189	
960	4.795	-27.31811904907227	1452.993896484375	-817.432556152344	-140.9970703125	1477.791748046875	-975.6755371093752	-162.2638397216797	1475.250366210938	-837.5139770507815	-244.0924835205079	1329.27197265625	-902.7327880859377	-409.4501037597657	1086.274291992188	-902.7410888671877	-136.4817810058594	1226.227294921875	-902.1381835937502	-177.1153411865235	1292.882934570313	-1054.838500976563	-257.3752136230469	1178.220581054688	-1162.729858398438	-271.2328186035157	1136.281860351563	-1141.70166015625	-299.0528259277344	1135.87158203125	-1194.51904296875	-359.4792175292969	1111.490356445313	-1249.82080078125	-424.7810363769532	1132.700561523438	-1223.445434570313	-419.6742248535157	908.9281005859377	-1108.21044921875	-407.056610107422	876.0364990234377	-1165.392700195313	-387.7215576171876	878.5751953125002	-1070.337890625	-176.3538665771485	1292.969604492188	-762.4765625000001	-306.3262023925782	1235.014526367188	-628.8768920898439	-296.6383972167969	1184.593139648438	-621.5246582031251	-344.7414855957032	1195.502563476563	-585.4317626953126	-384.1879882812501	1131.691650390625	-548.8016967773439	-439.8786621093751	1157.2265625	-576.2532348632814	-435.6581420898439	924.9171142578127	-693.2172241210939	-418.7942504882814	892.426208496094	-636.8274536132814	-394.3433532714845	886.1271972656252	-729.8438110351564	-372.5912170410157	847.9755859375002	-1010.008728027344	-369.6517333984376	843.383239746094	-811.021179199219	-484.6498107910157	972.2593383789065	-905.3276977539065	-505.3757934570314	945.493347167969	-932.2224731445315	-502.7674560546876	945.359558105469	-875.190124511719	-398.7268981933595	648.2184448242189	-1132.243408203125	-326.6955566406251	608.4404296875001	-1154.156494140625	-287.4137878417969	633.3734741210939	-1144.182861328125	-316.4092102050782	546.5809326171876	-1154.199096679688	-273.1002197265626	466.1374511718751	-1156.296020507813	-236.8909149169922	321.1011352539063	-1148.445068359375	-312.1149597167969	298.0702819824219	-1188.6064453125	-274.0855407714844	284.2052917480469	-1174.22216796875	-290.6404418945313	204.232650756836	-1144.135009765625	-397.1918945312501	99.32810211181643	-1164.431762695313	-360.4321594238282	94.03833007812501	-1085.501098632813	-449.2623596191407	46.55311965942384	-1104.12060546875	-235.8126678466797	58.37245941162111	-1143.620971679688	-244.3837890625001	61.56803131103517	-1182.833740234375	-296.0621032714844	36.78320312500001	-1223.976318359375	-414.7413940429689	712.8731689453126	-691.5767822265626	-353.0924377441407	692.0024414062501	-681.0042114257814	-328.7098083496094	707.5955200195314	-697.1726074218751	-328.9469604492188	615.6020507812501	-659.8148193359376	-267.9691467285157	467.8463745117189	-658.1622924804689	-239.273422241211	285.2905273437501	-685.8666992187501	-322.7604980468751	223.7557983398438	-644.6179809570314	-280.6705627441407	212.9125061035157	-664.4537963867189	-289.6111145019532	170.1830444335938	-706.9647216796876	-375.9548339843751	99.38545227050784	-672.5253295898439	-334.6820678710938	94.9514846801758	-742.4075927734376	-416.1327209472657	44.4360580444336	-740.8461914062501	-217.4554595947266	56.07772445678712	-675.9143676757814	-231.2470703125001	62.97275161743165	-632.0644531250001	-287.0171813964844	41.69697952270509	-598.3860473632814	
961	4.8	-29.04264450073243	1459.675415039063	-816.6201171875002	-141.7431030273438	1484.85595703125	-975.327575683594	-163.7947387695313	1482.095703125	-837.374206542969	-245.8634338378907	1335.745971679688	-902.537780761719	-409.7776794433595	1091.756958007813	-902.334655761719	-137.9446563720703	1233.783203125	-901.918884277344	-179.1806335449219	1300.209106445313	-1054.724975585938	-258.9100036621094	1185.100463867188	-1162.484741210938	-272.3041076660157	1143.039184570313	-1141.30078125	-300.4749450683594	1142.359985351563	-1194.192749023438	-360.7304382324219	1117.481323242188	-1249.093505859375	-426.082489013672	1138.207641601563	-1222.549926757813	-419.1988830566407	914.4727172851565	-1107.874267578125	-406.404022216797	881.6499633789065	-1164.943969726563	-386.5361633300782	883.9008789062502	-1069.654296875	-178.487289428711	1300.189208984375	-762.6195678710939	-308.0372009277344	1241.5791015625	-628.7831420898439	-298.0603027343751	1191.171264648438	-621.3670043945314	-346.2420349121094	1201.782348632813	-585.3498535156251	-385.3746948242189	1137.589965820313	-548.4907836914064	-441.3015747070314	1162.857299804688	-576.2445678710939	-435.0657653808595	930.2771606445315	-692.6213989257814	-418.2318725585939	898.053405761719	-636.2249145507814	-393.6479492187501	891.527282714844	-729.1292724609376	-371.4304504394532	853.3184204101565	-1009.582214355469	-368.2583923339844	848.8074340820315	-810.4321899414065	-484.0422363281251	977.211120605469	-904.7905883789065	-504.7615661621095	950.3653564453127	-931.5818481445315	-501.9568481445314	950.1328125000002	-874.4036254882815	-399.1284484863282	651.7849121093751	-1131.382202148438	-327.9523620605469	611.0090942382814	-1153.22021484375	-288.2678222656251	635.4985351562501	-1143.1611328125	-318.5329589843751	549.0764160156251	-1153.164184570313	-276.2335510253907	467.8149414062501	-1155.1318359375	-239.4235992431641	322.6344299316407	-1147.53564453125	-314.4455261230469	299.2041625976563	-1187.90673828125	-276.4274902343751	285.5440063476563	-1173.315673828125	-292.4877319335938	205.6391754150391	-1143.71923828125	-397.7713928222657	99.49080657958987	-1164.475708007813	-361.0086669921876	94.25542449951173	-1085.522705078125	-449.4075317382814	46.52140045166016	-1104.1728515625	-236.0041198730469	58.73059463500978	-1143.407104492188	-243.6582031250001	61.47938919067384	-1182.498046875	-296.1892700195313	37.06659317016602	-1223.823364257813	-413.9683532714845	716.5308227539064	-691.2410888671876	-352.7132873535157	694.8370971679689	-680.7617187500001	-328.0289306640626	710.0284423828126	-696.8922119140626	-329.5172119140626	617.7185668945314	-659.9538574218751	-270.7452697753907	469.0186462402345	-658.7884521484376	-241.3929138183594	286.5931701660157	-686.2659912109376	-324.0277404785157	224.1743774414063	-644.7943725585939	-281.9586181640626	213.6655426025391	-664.6113891601564	-290.4808349609376	170.7418823242188	-706.9526367187501	-376.4297485351563	99.38836669921878	-672.4430541992189	-335.0332641601563	95.20259857177736	-742.4096069335939	-416.051239013672	44.37718582153321	-740.7915039062501	-217.5999755859376	56.52661132812501	-675.9628295898439	-231.2953186035157	63.4231300354004	-632.1272583007814	-287.0451354980469	41.75405883789063	-598.4782104492189	
962	4.805	-30.69087600708009	1465.949340820313	-815.8716430664065	-143.2486419677735	1492.178833007813	-975.1481933593752	-165.1717529296875	1489.480346679688	-837.1106567382815	-248.6678619384766	1342.606201171875	-902.1464843750002	-409.979949951172	1097.16748046875	-901.8914794921877	-139.5772857666016	1241.235717773438	-901.8005371093752	-181.2948150634766	1307.672241210938	-1054.321044921875	-260.4692077636719	1191.923583984375	-1162.130126953125	-273.5144653320313	1149.674682617188	-1140.873046875	-301.7634582519532	1148.803833007813	-1193.72607421875	-362.1091918945313	1123.427124023438	-1248.399536132813	-427.3342895507814	1143.634155273438	-1221.648803710938	-418.8073120117189	919.8215942382815	-1107.094116210938	-405.8598937988282	887.3121337890627	-1164.471069335938	-385.8689270019532	889.3721313476565	-1069.33203125	-180.5853424072266	1307.2626953125	-762.5036010742189	-309.7542114257813	1247.773193359375	-628.6886596679689	-299.4027709960938	1197.817626953125	-621.1624145507814	-347.7199401855469	1208.05322265625	-585.2472534179689	-386.6195373535157	1143.174072265625	-548.3307495117189	-442.4693603515626	1168.487670898438	-576.3353271484376	-434.534881591797	935.6888427734377	-692.1208496093751	-417.7469482421876	903.750671386719	-635.7129516601564	-392.927947998047	897.000915527344	-728.4213867187501	-370.2333068847657	858.5974731445315	-1009.081604003906	-366.6353759765626	854.0674438476565	-809.9255371093752	-483.3774414062501	982.0465087890627	-904.3283691406252	-504.2479858398439	955.2412109375002	-930.962585449219	-500.9568481445314	954.9614257812502	-874.0512695312502	-399.7080383300782	655.5346069335939	-1130.57421875	-329.0052795410157	613.4876708984376	-1152.154663085938	-289.2295837402344	637.4433593750001	-1142.106811523438	-320.5156250000001	551.4492797851564	-1151.864379882813	-279.1399536132813	469.2506713867189	-1153.975952148438	-241.8625640869141	324.1004638671876	-1146.657470703125	-316.4469299316407	300.0299072265626	-1186.990600585938	-278.6010437011719	286.5479125976563	-1172.626708984375	-293.8259887695313	206.5425872802735	-1143.1005859375	-398.4094238281251	99.61891174316409	-1164.485473632813	-361.6642456054688	94.56564331054689	-1085.569458007813	-449.465545654297	46.48350143432618	-1104.16845703125	-236.1797180175782	59.3068199157715	-1143.191772460938	-244.4498291015626	62.29675674438478	-1182.249877929688	-296.2872314453126	37.36787033081055	-1223.571533203125	-412.9878540039064	720.0921630859376	-690.9713745117189	-352.3188171386719	697.5750122070314	-680.5961303710939	-327.3018188476563	712.2117309570314	-696.5386962890626	-330.3072204589844	619.9718627929689	-660.1018676757814	-273.6240539550782	470.355926513672	-659.4074707031251	-242.9570312500001	287.4089050292969	-686.7505493164064	-325.5083923339844	224.6760253906251	-645.0374755859376	-284.1482543945313	214.2331695556641	-665.1159057617189	-291.5780334472657	171.2306671142578	-707.1194458007814	-376.9127502441407	99.47587585449222	-672.4138793945314	-335.6356811523438	95.32256317138673	-741.7901000976564	-416.2232971191407	44.39886856079102	-740.7158203125001	-217.796371459961	57.02385330200197	-675.8959960937501	-232.0080566406251	64.04900360107423	-632.0336303710939	-287.1652832031251	41.87894821166993	-598.5839843750001	
